<?xml version="1.0" standalone="no"?>
<!DOCTYPE svg PUBLIC "-//W3C//DTD SVG 20010904//EN"
 "http://www.w3.org/TR/2001/REC-SVG-20010904/DTD/svg10.dtd">
<svg version="1.0" xmlns="http://www.w3.org/2000/svg"
 width="500.000000pt" height="500.000000pt" viewBox="0 0 500.000000 500.000000"
 preserveAspectRatio="xMidYMid meet">

<g transform="translate(0.000000,500.000000) scale(0.100000,-0.100000)"
fill="#000000" stroke="none">
<path d="M760 2500 l0 -480 1870 0 1870 0 0 480 0 480 -1870 0 -1870 0 0 -480z
m3710 0 l0 -450 -1840 0 -1840 0 0 450 0 450 1840 0 1840 0 0 -450z"/>
<path d="M850 2500 l0 -390 820 0 820 0 0 390 0 390 -820 0 -820 0 0 -390z
m615 65 c25 -41 50 -73 55 -70 5 3 28 37 51 75 28 44 50 70 61 70 16 0 18 -12
18 -130 0 -107 -3 -130 -15 -130 -11 0 -15 20 -17 98 l-3 97 -43 -62 c-23 -35
-49 -63 -56 -63 -7 0 -32 28 -55 63 l-41 62 0 -97 c0 -91 -1 -98 -20 -98 -19
0 -20 7 -20 130 0 121 1 130 19 130 13 0 34 -24 66 -75z m325 20 l0 -55 70 0
70 0 0 55 c0 42 3 55 15 55 13 0 15 -21 15 -130 0 -109 -2 -130 -15 -130 -12
0 -15 13 -15 60 l0 60 -70 0 -70 0 0 -60 c0 -47 -3 -60 -15 -60 -13 0 -15 21
-15 130 0 109 2 130 15 130 12 0 15 -13 15 -55z"/>
<path d="M3675 2631 c-54 -24 -80 -72 -73 -136 14 -118 162 -161 246 -71 59
65 39 170 -41 207 -52 23 -81 23 -132 0z m106 -69 c25 -21 30 -71 9 -96 -16
-21 -74 -20 -95 0 -25 25 -16 85 15 101 34 17 44 16 71 -5z"/>
<path d="M4240 2637 c-71 -36 -61 -114 19 -143 61 -23 77 -37 58 -53 -15 -12
-47 -5 -47 10 0 5 -18 9 -41 9 -37 0 -40 -2 -34 -22 9 -31 42 -58 74 -60 86
-4 131 22 131 77 0 40 -31 69 -87 84 -26 7 -43 18 -43 27 0 22 28 28 49 10 15
-14 81 -24 81 -12 0 26 -26 60 -55 71 -42 18 -72 19 -105 2z"/>
<path d="M2610 2510 l0 -130 35 0 c34 0 35 1 35 40 l0 40 45 0 c43 0 45 1 45
29 0 28 -3 30 -42 33 -36 2 -44 7 -46 26 -3 20 0 22 47 22 l51 0 0 35 0 35
-85 0 -85 0 0 -130z"/>
<path d="M2820 2510 l0 -130 95 0 95 0 0 30 c0 30 -1 30 -55 30 -48 0 -55 2
-55 20 0 17 7 20 45 20 43 0 45 1 45 30 0 29 -2 30 -45 30 -38 0 -45 3 -45 20
0 17 7 20 50 20 49 0 50 1 50 30 l0 30 -90 0 -90 0 0 -130z"/>
<path d="M3050 2510 l0 -130 40 0 c39 0 40 1 40 35 0 22 5 35 13 35 7 0 21
-16 30 -35 15 -31 21 -35 57 -35 22 0 40 2 40 5 0 3 -9 23 -19 43 -19 37 -19
38 0 61 19 23 25 74 13 106 -12 29 -60 45 -139 45 l-75 0 0 -130z m139 56 c16
-19 4 -43 -25 -50 -34 -9 -44 0 -44 35 0 25 4 29 29 29 16 0 34 -6 40 -14z"/>
<path d="M3320 2511 l0 -131 70 0 c121 0 170 35 178 124 4 50 2 56 -31 92
l-35 39 -91 3 -91 4 0 -131z m151 49 c13 -7 19 -21 19 -45 0 -41 -22 -65 -61
-65 -29 0 -29 0 -29 60 0 58 1 60 26 60 14 0 34 -5 45 -10z"/>
<path d="M3920 2554 c0 -121 22 -161 98 -177 35 -8 89 11 112 40 17 22 20 40
20 124 l0 99 -35 0 -35 0 0 -84 c0 -91 -10 -110 -52 -104 -22 3 -23 8 -26 96
l-3 92 -39 0 -40 0 0 -86z"/>
</g>
</svg>
